<?xml version="1.0" encoding="UTF-8"?>
<svg width="700pt" height="700pt" version="1.1" viewBox="0 0 700 700" xmlns="http://www.w3.org/2000/svg" xmlns:xlink="http://www.w3.org/1999/xlink" fill="#8b81fa">
 <defs>
  <symbol id="n" overflow="visible">
   <path d="m29.312-1.75c-1.5117 0.78125-3.0898 1.3711-4.7344 1.7656-1.6367 0.40625-3.3398 0.60938-5.1094 0.60938-5.3125 0-9.5273-1.4844-12.641-4.4531-3.1055-2.9688-4.6562-7-4.6562-12.094s1.5508-9.125 4.6562-12.094c3.1133-2.9688 7.3281-4.4531 12.641-4.4531 1.7695 0 3.4727 0.19922 5.1094 0.59375 1.6445 0.39844 3.2227 0.99219 4.7344 1.7812v6.5938c-1.5312-1.0391-3.0391-1.8008-4.5156-2.2812-1.4805-0.48828-3.0391-0.73438-4.6719-0.73438-2.9375 0-5.2461 0.94531-6.9219 2.8281-1.6797 1.875-2.5156 4.4648-2.5156 7.7656 0 3.293 0.83594 5.8828 2.5156 7.7656 1.6758 1.875 3.9844 2.8125 6.9219 2.8125 1.6328 0 3.1914-0.23828 4.6719-0.71875 1.4766-0.48828 2.9844-1.2539 4.5156-2.2969z"/>
  </symbol>
  <symbol id="h" overflow="visible">
   <path d="m21.453-17.406c-0.67969-0.3125-1.3516-0.53906-2.0156-0.6875-0.65625-0.15625-1.3203-0.23438-1.9844-0.23438-1.9688 0-3.4844 0.63281-4.5469 1.8906-1.0547 1.2617-1.5781 3.0703-1.5781 5.4219v11.016h-7.6562v-23.922h7.6562v3.9219c0.97656-1.5625 2.1016-2.7031 3.375-3.4219 1.2812-0.71875 2.8125-1.0781 4.5938-1.0781 0.25 0 0.52344 0.011719 0.82812 0.03125 0.30078 0.023438 0.73438 0.070312 1.2969 0.14062z"/>
  </symbol>
  <symbol id="b" overflow="visible">
   <path d="m27.562-12.031v2.1875h-17.891c0.1875 1.793 0.83203 3.1367 1.9375 4.0312 1.1133 0.89844 2.6719 1.3438 4.6719 1.3438 1.6016 0 3.25-0.23438 4.9375-0.70312 1.6875-0.47656 3.4219-1.2031 5.2031-2.1719v5.8906c-1.8047 0.6875-3.6094 1.2031-5.4219 1.5469-1.8125 0.35156-3.6211 0.53125-5.4219 0.53125-4.3359 0-7.7031-1.0977-10.109-3.2969-2.3984-2.207-3.5938-5.2969-3.5938-9.2656 0-3.9062 1.1758-6.9727 3.5312-9.2031 2.3633-2.2383 5.6094-3.3594 9.7344-3.3594 3.7578 0 6.7695 1.1367 9.0312 3.4062 2.2578 2.2617 3.3906 5.2812 3.3906 9.0625zm-7.8594-2.5312c0-1.457-0.42969-2.6289-1.2812-3.5156-0.84375-0.89453-1.9492-1.3438-3.3125-1.3438-1.4922 0-2.6992 0.41797-3.625 1.25-0.91797 0.83594-1.4922 2.0391-1.7188 3.6094z"/>
  </symbol>
  <symbol id="a" overflow="visible">
   <path d="m14.391-10.766c-1.5938 0-2.793 0.27344-3.5938 0.8125-0.80469 0.54297-1.2031 1.3398-1.2031 2.3906 0 0.96875 0.32031 1.7305 0.96875 2.2812 0.64453 0.54297 1.5469 0.8125 2.7031 0.8125 1.4375 0 2.6445-0.51562 3.625-1.5469 0.98828-1.0312 1.4844-2.3203 1.4844-3.875v-0.875zm11.688-2.8906v13.656h-7.7031v-3.5469c-1.0312 1.4492-2.1875 2.5078-3.4688 3.1719s-2.8398 1-4.6719 1c-2.4805 0-4.4961-0.72266-6.0469-2.1719-1.543-1.4453-2.3125-3.3203-2.3125-5.625 0-2.8125 0.96094-4.8672 2.8906-6.1719 1.9375-1.3125 4.9688-1.9688 9.0938-1.9688h4.5156v-0.60938c0-1.207-0.48047-2.0938-1.4375-2.6562-0.94922-0.5625-2.4375-0.84375-4.4688-0.84375-1.6367 0-3.1562 0.16797-4.5625 0.5-1.4062 0.32422-2.7188 0.8125-3.9375 1.4688v-5.8281c1.6445-0.40625 3.2891-0.70703 4.9375-0.90625 1.6562-0.20703 3.3047-0.3125 4.9531-0.3125 4.3203 0 7.4375 0.85547 9.3438 2.5625 1.9141 1.6992 2.875 4.4609 2.875 8.2812z"/>
  </symbol>
  <symbol id="g" overflow="visible">
   <path d="m12.031-30.719v6.7969h7.875v5.4688h-7.875v10.141c0 1.1172 0.21875 1.8711 0.65625 2.2656 0.4375 0.38672 1.3125 0.57812 2.625 0.57812h3.9375v5.4688h-6.5625c-3.0234 0-5.1641-0.62891-6.4219-1.8906-1.2617-1.2578-1.8906-3.3984-1.8906-6.4219v-10.141h-3.7969v-5.4688h3.7969v-6.7969z"/>
  </symbol>
  <symbol id="f" overflow="visible">
   <path d="m19.953-20.422v-12.812h7.6875v33.234h-7.6875v-3.4531c-1.0547 1.4062-2.2148 2.4375-3.4844 3.0938-1.2734 0.65625-2.7422 0.98438-4.4062 0.98438-2.9492 0-5.3711-1.1719-7.2656-3.5156-1.8867-2.3438-2.8281-5.3594-2.8281-9.0469s0.94141-6.7031 2.8281-9.0469c1.8945-2.3438 4.3164-3.5156 7.2656-3.5156 1.6562 0 3.1172 0.33594 4.3906 1 1.2812 0.65625 2.4453 1.6836 3.5 3.0781zm-5.0469 15.484c1.6445 0 2.8945-0.59766 3.75-1.7969 0.86328-1.1953 1.2969-2.9297 1.2969-5.2031 0-2.2812-0.43359-4.0195-1.2969-5.2188-0.85547-1.1953-2.1055-1.7969-3.75-1.7969-1.625 0-2.8711 0.60156-3.7344 1.7969-0.85547 1.1992-1.2812 2.9375-1.2812 5.2188 0 2.2734 0.42578 4.0078 1.2812 5.2031 0.86328 1.1992 2.1094 1.7969 3.7344 1.7969z"/>
  </symbol>
  <symbol id="e" overflow="visible">
   <path d="m16.406-4.9375c1.6328 0 2.8828-0.59766 3.75-1.7969 0.86328-1.1953 1.2969-2.9297 1.2969-5.2031 0-2.2812-0.43359-4.0195-1.2969-5.2188-0.86719-1.1953-2.1172-1.7969-3.75-1.7969-1.6367 0-2.8906 0.60547-3.7656 1.8125-0.875 1.1992-1.3125 2.9336-1.3125 5.2031 0 2.2617 0.4375 3.9961 1.3125 5.2031 0.875 1.1992 2.1289 1.7969 3.7656 1.7969zm-5.0781-15.484c1.0508-1.3945 2.2188-2.4219 3.5-3.0781 1.2812-0.66406 2.7539-1 4.4219-1 2.9453 0 5.3672 1.1719 7.2656 3.5156 1.8945 2.3438 2.8438 5.3594 2.8438 9.0469s-0.94922 6.7031-2.8438 9.0469c-1.8984 2.3438-4.3203 3.5156-7.2656 3.5156-1.668 0-3.1406-0.33594-4.4219-1s-2.4492-1.6914-3.5-3.0781v3.4531h-7.6562v-33.234h7.6562z"/>
  </symbol>
  <symbol id="c" overflow="visible">
   <path d="m0.53125-23.922h7.6562l6.4219 16.234 5.4688-16.234h7.6562l-10.062 26.188c-1.0117 2.6641-2.1953 4.5234-3.5469 5.5781-1.3438 1.0625-3.1211 1.5938-5.3281 1.5938h-4.4219v-5.0156h2.3906c1.3008 0 2.2422-0.21094 2.8281-0.625 0.59375-0.40625 1.0547-1.1484 1.3906-2.2188l0.20312-0.65625z"/>
  </symbol>
  <symbol id="d" overflow="visible">
   <path d="m19.422-33.234v5.0156h-4.2344c-1.0859 0-1.8398 0.19922-2.2656 0.59375-0.42969 0.38672-0.64062 1.0625-0.64062 2.0312v1.6719h6.5312v5.4688h-6.5312v18.453h-7.6406v-18.453h-3.8125v-5.4688h3.8125v-1.6719c0-2.6016 0.72266-4.5234 2.1719-5.7656 1.457-1.25 3.707-1.875 6.75-1.875z"/>
  </symbol>
  <symbol id="m" overflow="visible">
   <path d="m3.4219-9.3125v-14.609h7.6875v2.3906c0 1.293-0.011719 2.918-0.03125 4.875-0.011719 1.9609-0.015625 3.2656-0.015625 3.9219 0 1.9297 0.046875 3.3125 0.14062 4.1562 0.10156 0.84375 0.28125 1.4609 0.53125 1.8438 0.3125 0.5 0.71875 0.88672 1.2188 1.1562 0.50781 0.27344 1.0938 0.40625 1.75 0.40625 1.5938 0 2.8438-0.60938 3.75-1.8281 0.91406-1.2266 1.375-2.9297 1.375-5.1094v-11.812h7.6406v23.922h-7.6406v-3.4531c-1.1562 1.3867-2.3828 2.4141-3.6719 3.0781-1.2812 0.66406-2.6992 1-4.25 1-2.7734 0-4.8828-0.84766-6.3281-2.5469-1.4375-1.6953-2.1562-4.1602-2.1562-7.3906z"/>
  </symbol>
  <symbol id="l" overflow="visible">
   <path d="m22.359-23.172v5.7969c-1.6367-0.67578-3.2148-1.1875-4.7344-1.5312-1.5234-0.34375-2.9609-0.51562-4.3125-0.51562-1.4609 0-2.543 0.18359-3.25 0.54688-0.69922 0.36719-1.0469 0.92188-1.0469 1.6719 0 0.61719 0.26562 1.0898 0.79688 1.4219 0.53125 0.32422 1.4883 0.5625 2.875 0.71875l1.3438 0.1875c3.9141 0.5 6.5508 1.3242 7.9062 2.4688 1.3516 1.1367 2.0312 2.9219 2.0312 5.3594 0 2.5547-0.94531 4.4688-2.8281 5.75-1.875 1.2812-4.6797 1.9219-8.4062 1.9219-1.5859 0-3.2188-0.125-4.9062-0.375s-3.4219-0.625-5.2031-1.125v-5.8125c1.5195 0.74219 3.082 1.2969 4.6875 1.6719 1.6016 0.36719 3.2344 0.54688 4.8906 0.54688 1.4883 0 2.6094-0.20312 3.3594-0.60938 0.75781-0.41406 1.1406-1.0312 1.1406-1.8438 0-0.6875-0.26172-1.1953-0.78125-1.5312-0.52344-0.33203-1.5586-0.59375-3.1094-0.78125l-1.3438-0.17188c-3.4062-0.42578-5.793-1.2109-7.1562-2.3594-1.3672-1.1562-2.0469-2.9102-2.0469-5.2656 0-2.5312 0.86719-4.4062 2.6094-5.625 1.7383-1.2266 4.3984-1.8438 7.9844-1.8438 1.4062 0 2.8828 0.10938 4.4375 0.32812 1.5508 0.21094 3.2383 0.54297 5.0625 1z"/>
  </symbol>
  <symbol id="k" overflow="visible">
   <path d="m27.734-14.562v14.562h-7.7031v-11.156c0-2.0625-0.046875-3.4844-0.14062-4.2656-0.085937-0.78125-0.24219-1.3594-0.46875-1.7344-0.30469-0.5-0.71094-0.88281-1.2188-1.1562-0.51172-0.28125-1.0938-0.42188-1.75-0.42188-1.5938 0-2.8516 0.61719-3.7656 1.8438-0.90625 1.2305-1.3594 2.9375-1.3594 5.125v11.766h-7.6562v-23.922h7.6562v3.5c1.1445-1.3945 2.3633-2.4219 3.6562-3.0781 1.3008-0.66406 2.7383-1 4.3125-1 2.7578 0 4.8516 0.85156 6.2812 2.5469 1.4375 1.6875 2.1562 4.1523 2.1562 7.3906z"/>
  </symbol>
  <symbol id="j" overflow="visible">
   <path d="m25.844-19.953c0.96875-1.4766 2.1172-2.6016 3.4531-3.375 1.332-0.78125 2.7969-1.1719 4.3906-1.1719 2.75 0 4.8438 0.85156 6.2812 2.5469 1.4375 1.6875 2.1562 4.1523 2.1562 7.3906v14.562h-7.6875v-12.469c0.007812-0.1875 0.019531-0.37891 0.03125-0.57812 0.007812-0.19531 0.015625-0.48438 0.015625-0.85938 0-1.6953-0.25-2.9258-0.75-3.6875-0.5-0.75781-1.3086-1.1406-2.4219-1.1406-1.4492 0-2.5703 0.60156-3.3594 1.7969-0.79297 1.1992-1.2031 2.9297-1.2344 5.1875v11.75h-7.6875v-12.469c0-2.6562-0.23047-4.3633-0.6875-5.125-0.44922-0.75781-1.2578-1.1406-2.4219-1.1406-1.4688 0-2.6055 0.60547-3.4062 1.8125-0.79297 1.1992-1.1875 2.918-1.1875 5.1562v11.766h-7.7031v-23.922h7.7031v3.5c0.9375-1.3516 2.0156-2.3672 3.2344-3.0469 1.2188-0.6875 2.5547-1.0312 4.0156-1.0312 1.6562 0 3.1133 0.40234 4.375 1.2031 1.2695 0.79297 2.2344 1.9062 2.8906 3.3438z"/>
  </symbol>
  <symbol id="i" overflow="visible">
   <path d="m27.734-14.562v14.562h-7.7031v-11.109c0-2.0938-0.046875-3.5312-0.14062-4.3125-0.085937-0.78125-0.24219-1.3594-0.46875-1.7344-0.30469-0.5-0.71094-0.88281-1.2188-1.1562-0.51172-0.28125-1.0938-0.42188-1.75-0.42188-1.5938 0-2.8516 0.61719-3.7656 1.8438-0.90625 1.2305-1.3594 2.9375-1.3594 5.125v11.766h-7.6562v-33.234h7.6562v12.812c1.1445-1.3945 2.3633-2.4219 3.6562-3.0781 1.3008-0.66406 2.7383-1 4.3125-1 2.7578 0 4.8516 0.85156 6.2812 2.5469 1.4375 1.6875 2.1562 4.1523 2.1562 7.3906z"/>
  </symbol>
 </defs>
 <g>
  <path d="m166.25 507.5v8.75c0 6.9609 2.7656 13.641 7.6875 18.562s11.602 7.6875 18.562 7.6875h315c6.9609 0 13.641-2.7656 18.562-7.6875s7.6875-11.602 7.6875-18.562v-8.75c6.9609 0 13.641-2.7656 18.562-7.6875s7.6875-11.602 7.6875-18.562v-140c0-6.9609-2.7656-13.641-7.6875-18.562s-11.602-7.6875-18.562-7.6875v-187.34l-110.16-110.16h-231.09c-6.9609 0-13.641 2.7656-18.562 7.6875s-7.6875 11.602-7.6875 18.562v271.25c-6.9609 0-13.641 2.7656-18.562 7.6875s-7.6875 11.602-7.6875 18.562v140c0 6.9609 2.7656 13.641 7.6875 18.562s11.602 7.6875 18.562 7.6875zm350 8.75c0 2.3203-0.92188 4.5469-2.5625 6.1875s-3.8672 2.5625-6.1875 2.5625h-315c-4.832 0-8.75-3.918-8.75-8.75v-8.75h332.5zm-87.5-468.91 75.164 75.164h-75.164zm-245-3.5859c0-4.832 3.918-8.75 8.75-8.75h218.75v105h105v175h-332.5zm-26.25 297.5c0-4.832 3.918-8.75 8.75-8.75h367.5c2.3203 0 4.5469 0.92188 6.1875 2.5625s2.5625 3.8672 2.5625 6.1875v140c0 2.3203-0.92188 4.5469-2.5625 6.1875s-3.8672 2.5625-6.1875 2.5625h-367.5c-4.832 0-8.75-3.918-8.75-8.75z"/>
  <path d="m227.5 227.5h245c4.832 0 8.75-3.918 8.75-8.75s-3.918-8.75-8.75-8.75h-245c-4.832 0-8.75 3.918-8.75 8.75s3.918 8.75 8.75 8.75z"/>
  <path d="m472.5 262.5h-245c-4.832 0-8.75 3.918-8.75 8.75s3.918 8.75 8.75 8.75h245c4.832 0 8.75-3.918 8.75-8.75s-3.918-8.75-8.75-8.75z"/>
  <path d="m251.82 460.34c3.1641 2.6328 6.8242 4.5977 10.762 5.7773 4.25 1.168 8.6328 1.7578 13.039 1.75 4.7422 0.039063 9.4609-0.64062 14-2.0117 4.0625-1.1641 7.8672-3.0938 11.199-5.6875 3.1953-2.4336 5.7695-5.5781 7.5273-9.1875 1.8086-3.9531 2.7031-8.2578 2.625-12.602 0.55859-3.168-0.41406-6.4141-2.625-8.75-2.6055-1.6484-5.6836-2.3867-8.75-2.1016-2.5234-0.066407-5.0312 0.41016-7.3516 1.4023-2.1523 0.84375-3.5508 2.9375-3.5 5.25 0 1.3984 0 2.9766-0.4375 4.5508-0.23438 1.6406-0.80078 3.2188-1.6641 4.6367-0.92969 1.4414-2.1875 2.6406-3.6719 3.5-2.6055 1.1953-5.4922 1.6406-8.3398 1.2852-2.8438-0.35547-5.5312-1.4961-7.7617-3.2969-2.4297-3.0039-3.6211-6.8242-3.3242-10.676v-36.84c-0.3125-3.8516 0.87891-7.6797 3.3242-10.672 2.5078-2.3945 5.9023-3.6328 9.3633-3.4141 2.4258-0.15625 4.8477 0.35547 7 1.4883 1.5 0.83594 2.7656 2.0391 3.6758 3.5 0.83594 1.2266 1.375 2.6367 1.5742 4.1133 0.066407 1.1641 0.066407 2.332 0 3.5 0.007813 2.2656 1.3438 4.3203 3.4102 5.25 2.4023 1.0273 5.0039 1.5039 7.6133 1.3984 2.9141 0.19922 5.8164-0.5 8.3125-2.0117 2.1641-2.3633 3.1328-5.5859 2.625-8.75 0.085937-4.1484-0.8125-8.2578-2.625-11.988-1.8125-3.4492-4.3867-6.4414-7.5234-8.75-3.3516-2.5117-7.1523-4.3555-11.199-5.4258-4.5586-1.2695-9.2734-1.8867-14-1.8359-4.4102-0.050781-8.8008 0.53906-13.039 1.75-3.9688 1.1055-7.6445 3.0781-10.762 5.7734-2.8945 3.0273-5.0508 6.6797-6.3008 10.676-1.9492 4.8945-2.8711 10.137-2.7109 15.398v37.277c-0.17969 5.2656 0.74609 10.512 2.7109 15.398 1.4727 3.9102 3.8047 7.4375 6.8242 10.324z"/>
  <path d="m327.16 462.79c3.4414 1.793 7.082 3.1719 10.848 4.1094 4.3047 1 8.707 1.5 13.125 1.4883 4.7695 0.027343 9.5156-0.65234 14.09-2.0117 4.0156-1.2734 7.7539-3.293 11.023-5.9492 3.1406-2.668 5.625-6.0195 7.2617-9.8008 1.8203-4.2539 2.7148-8.8477 2.625-13.477 0.21484-5.1328-0.92969-10.238-3.3242-14.785-2.0781-3.8203-4.8711-7.207-8.2266-9.9766-3.2539-2.7383-6.875-5.0039-10.762-6.7383l-10.762-4.8125c-2.8906-1.2617-5.6484-2.8164-8.2266-4.6367-2.0273-1.3086-3.2734-3.5352-3.3242-5.9492 0.074219-2.3594 1.2812-4.543 3.2383-5.8633 3.2422-2.0039 7.0547-2.8945 10.852-2.5352 2.4141-0.058593 4.8281 0.20313 7.1719 0.78516l4.8984 1.8359 3.5859 1.8359 0.003907 0.003906c1.1211 0.54297 2.3438 0.84375 3.5898 0.875 1.4258 0.050781 2.8242-0.41797 3.9375-1.3125 1.1484-0.79688 2.1055-1.8438 2.7969-3.0625 0.69141-1.2109 1.2188-2.5039 1.5781-3.8516 0.097657-1.1055 0.097657-2.2188 0-3.3242 0.074219-2.6094-1.1758-5.0781-3.3281-6.5625-2.3672-1.7344-5.0352-3.0078-7.875-3.7617-3.0391-0.81641-6.1406-1.3711-9.2734-1.6641-3.1484 0-5.6875-0.4375-7.5234-0.4375-4.4297-0.007813-8.8398 0.55078-13.125 1.6641-4.1328 0.96484-8.0469 2.6836-11.551 5.0742-5.4297 4.0977-9.2188 9.9922-10.695 16.633-1.4727 6.6367-0.53906 13.582 2.6445 19.594 2.1133 3.5938 4.9102 6.7461 8.2266 9.2734 3.3008 2.5781 6.918 4.7266 10.762 6.3867 3.9375 1.75 7.5234 3.5 10.762 5.0742v0.003906c2.9414 1.4492 5.7031 3.2422 8.2266 5.3359 2.1875 1.7266 3.4219 4.3906 3.3242 7.1758 0.0625 1.5234-0.36719 3.0273-1.2266 4.2852-0.83203 1.1797-1.9062 2.1641-3.1484 2.8906-1.3633 0.75391-2.8438 1.2852-4.375 1.5742-1.6133 0.34375-3.2539 0.51953-4.9023 0.52344-3.0078 0.15234-6.0039-0.41797-8.75-1.6602-2.1328-0.98047-4.1562-2.1836-6.0352-3.5898l-4.8125-3.5859c-1.3594-1.0352-3.0195-1.5898-4.7266-1.5742-1.3281-0.027343-2.625 0.40234-3.6758 1.2227-1.1797 0.77344-2.2188 1.7539-3.0625 2.8867-0.80469 1.207-1.4805 2.5-2.0117 3.8516-1.5391 3.625-0.78516 7.8164 1.9258 10.676 2.2891 2.5195 5.0938 4.5195 8.2266 5.8633z"/>
  <path d="m402.5 462.79c3.4336 1.8047 7.0781 3.1875 10.852 4.1094 4.3008 1 8.707 1.5 13.125 1.4883 4.7695 0.027343 9.5156-0.65234 14.086-2.0117 4.0586-1.2305 7.8359-3.2539 11.113-5.9492 3.1406-2.6875 5.6484-6.0312 7.3477-9.8008 1.8203-4.2539 2.7148-8.8477 2.625-13.477 0.17187-5.1289-0.97266-10.223-3.3242-14.785-2.0781-3.8203-4.8672-7.207-8.2227-9.9766-3.2852-2.6992-6.9023-4.9648-10.766-6.7383l-10.586-4.8125c-2.8906-1.2617-5.6484-2.8164-8.2266-4.6367-2.0508-1.2852-3.3047-3.5273-3.3242-5.9492 0.074219-2.3594 1.2812-4.543 3.2383-5.8633 3.2422-2.0039 7.0547-2.8945 10.852-2.5352 2.4141-0.054687 4.8281 0.21094 7.1719 0.78516 1.6367 0.52344 3.2461 1.1367 4.8125 1.8398l3.6758 1.8359c1.1133 0.56641 2.3398 0.86719 3.5898 0.875 1.4219 0.019531 2.8086-0.44141 3.9375-1.3125 1.1484-0.79688 2.1055-1.8438 2.7969-3.0625 0.69922-1.1953 1.1992-2.4961 1.4883-3.8516 0.3125-1.082 0.49219-2.1992 0.52734-3.3242 0.042969-2.6016-1.2031-5.0586-3.3281-6.5625-2.3672-1.7344-5.0352-3.0078-7.875-3.7617-3.0391-0.81641-6.1406-1.3711-9.2734-1.6641-3.1484 0-5.6875-0.4375-7.5234-0.4375-4.4297-0.015626-8.8438 0.54297-13.125 1.6641-4.1328 0.96484-8.0469 2.6836-11.551 5.0742-3.3984 2.2227-6.2188 5.2227-8.2266 8.75-2.2188 4.1055-3.3086 8.7266-3.1484 13.387-0.21484 4.832 0.9375 9.6211 3.3242 13.828 2.1133 3.5938 4.9102 6.7422 8.2266 9.2734 3.2852 2.5977 6.9062 4.7461 10.762 6.3867l10.762 5.0742c2.9297 1.4727 5.6875 3.2617 8.2266 5.3398 2.1211 1.7734 3.3398 4.4062 3.3242 7.1758 0.023438 1.5156-0.40234 3.0078-1.2266 4.2852-0.83203 1.1758-1.9062 2.1641-3.1484 2.8867-1.3906 0.77344-2.8984 1.3047-4.4648 1.5781-1.5781 0.34766-3.1914 0.52344-4.8125 0.52344-3.0078 0.16016-6.0078-0.41016-8.75-1.6641-2.1328-0.97656-4.1562-2.1797-6.0352-3.5859l-4.8125-3.5859c-1.3633-1.0234-3.0234-1.5781-4.7266-1.5781-1.3281-0.027344-2.625 0.40625-3.6758 1.2266-1.1797 0.77344-2.2188 1.75-3.0625 2.8867-0.83984 1.1875-1.5156 2.4844-2.0117 3.8516-0.50391 1.2227-0.76953 2.5273-0.78516 3.8477 0.050782 2.5117 0.98047 4.9258 2.625 6.8281 2.0898 2.5078 4.6445 4.5859 7.5234 6.125z"/>
 </g>
</svg>
