<svg width="934" height="934" viewBox="0 0 934 934" xmlns="http://www.w3.org/2000/svg"  fill="#8b81fa">
<path d="M221.666 676.667V688.334C221.666 697.615 225.353 706.522 231.916 713.083C238.479 719.644 247.385 723.333 256.665 723.333H676.665C685.947 723.333 694.853 719.646 701.415 713.083C707.976 706.52 711.665 697.614 711.665 688.334V676.667C720.946 676.667 729.853 672.98 736.414 666.417C742.975 659.854 746.664 650.948 746.664 641.668V455.001C746.664 445.72 742.977 436.813 736.414 430.252C729.851 423.69 720.945 420.002 711.665 420.002V170.215L564.785 23.335H256.665C247.383 23.335 238.477 27.0224 231.915 33.585C225.354 40.1475 221.665 49.0543 221.665 58.3343V420.001C212.384 420.001 203.477 423.688 196.916 430.251C190.355 436.813 186.666 445.72 186.666 455V641.667C186.666 650.948 190.353 659.855 196.916 666.416C203.479 672.978 212.386 676.667 221.666 676.667ZM688.333 688.334C688.333 691.427 687.104 694.396 684.916 696.584C682.729 698.771 679.76 700 676.666 700H256.666C250.223 700 244.999 694.776 244.999 688.334V676.667H688.333V688.334ZM571.666 63.1203L671.885 163.339H571.666V63.1203ZM244.999 58.3391C244.999 51.8964 250.223 46.6724 256.666 46.6724H548.333V186.672H688.333V420.006H244.999V58.3391ZM209.999 455.006C209.999 448.563 215.223 443.339 221.666 443.339H711.666C714.76 443.339 717.729 444.568 719.916 446.756C722.103 448.943 723.333 451.912 723.333 455.006V641.672C723.333 644.766 722.104 647.735 719.916 649.922C717.729 652.11 714.76 653.339 711.666 653.339H221.666C215.223 653.339 209.999 648.115 209.999 641.672V455.006Z" />
<path d="M303.333 303.333H629.999C636.442 303.333 641.666 298.109 641.666 291.667C641.666 285.224 636.442 280 629.999 280H303.333C296.89 280 291.666 285.224 291.666 291.667C291.666 298.109 296.89 303.333 303.333 303.333Z" />
<path d="M629.999 350H303.333C296.89 350 291.666 355.224 291.666 361.667C291.666 368.109 296.89 373.333 303.333 373.333H629.999C636.442 373.333 641.666 368.109 641.666 361.667C641.666 355.224 636.442 350 629.999 350Z" />
<path d="M476.773 620.246C481.515 619.11 483 614.08 483 609.204V503.395C483 496.896 480.801 489.86 474.334 489.215C472.922 489.075 471.32 489.015 469.491 489.015C467.117 489.015 465.124 489.065 463.434 489.26C457.653 489.926 455.982 496.49 455.982 502.308V607.655C455.982 613.515 457.891 619.719 463.681 620.623C465.351 620.883 467.282 621.015 469.491 621.015C472.307 621.015 474.754 620.73 476.773 620.246Z" />
<path d="M569.936 620.48C575.145 619.524 576.982 614.243 576.982 608.947V515.796C576.982 508.802 574.295 501.564 567.315 501.121C566.157 501.047 564.882 501.015 563.472 501.015C561.533 501.015 559.847 501.045 558.374 501.153C552.103 501.612 549.962 508.368 549.962 514.655V607.305C549.962 613.635 552.306 620.084 558.598 620.776C560.043 620.935 561.665 621.015 563.472 621.015C565.918 621.015 568.086 620.819 569.936 620.48Z" />
<path d="M611.823 498.377C611.296 491.871 605.384 489.015 598.857 489.015H535.156C526.777 489.015 519.079 493.002 518.988 501.382C518.984 501.753 518.982 502.133 518.982 502.525C518.982 503.402 518.987 504.228 519 505.005C519.129 512.63 526.273 516.035 533.898 516.035H596.989C604.662 516.035 611.689 512.494 611.946 504.826C611.97 504.095 611.982 503.328 611.982 502.525C611.982 501.036 611.926 499.651 611.823 498.377Z" />
<path d="M335.743 614.802C339.962 618.312 344.842 620.932 350.092 622.505C355.759 624.062 361.602 624.849 367.477 624.838C373.8 624.89 380.092 623.984 386.144 622.156C391.561 620.604 396.634 618.031 401.076 614.573C405.336 611.328 408.769 607.135 411.112 602.323C413.524 597.052 414.717 591.312 414.612 585.52C414.612 580 415.948 568.115 413 565C409.526 562.802 406.571 562.135 402.482 562.515C399.118 562.426 371.389 561.192 368.295 562.515C365.425 563.64 368.227 576.837 368.295 579.921C368.295 581.785 385.764 572.029 389.175 580.503C386.956 586.685 385.651 592.265 384.5 594.155C383.26 596.077 382.479 595.854 380.5 597C377.026 598.594 369.956 599.025 366.159 598.551C362.368 598.077 358.784 596.556 355.81 594.155C352.571 590.15 350.982 585.056 351.378 579.921V530.801C350.961 525.665 352.55 520.561 355.81 516.571C359.154 513.379 363.68 511.728 368.295 512.019C371.529 511.811 374.758 512.493 377.628 514.004C379.628 515.118 381.316 516.722 382.529 518.67C383.644 520.306 384.362 522.186 384.628 524.155C384.717 525.707 384.717 527.264 384.628 528.821C384.638 531.842 386.42 534.582 389.175 535.821C392.378 537.191 395.847 537.827 399.326 537.686C403.212 537.952 407.081 537.019 410.409 535.004C413.295 531.853 414.586 527.556 413.909 523.337C414.024 517.806 412.826 512.327 410.409 507.353C407.993 502.754 404.56 498.764 400.378 495.686C395.909 492.337 390.842 489.879 385.446 488.452C379.368 486.759 373.082 485.936 366.78 486.004C360.899 485.936 355.045 486.723 349.394 488.337C344.102 489.811 339.202 492.442 335.045 496.035C331.186 500.072 328.31 504.941 326.644 510.27C324.045 516.796 322.816 523.786 323.029 530.801V580.503C322.79 587.524 324.024 594.519 326.644 601.034C328.607 606.247 331.717 610.951 335.743 614.799V614.802Z" />
</svg>
