<?xml version="1.0" encoding="UTF-8"?>
<svg width="700pt" height="700pt" version="1.1" viewBox="0 0 700 700" xmlns="http://www.w3.org/2000/svg" fill="red">
 <path d="m175 192.5h-17.5c-19.336 0-35-15.664-35-35v-35c0-19.336 15.664-35 35-35h87.5c0-13.93 5.5312-27.281 15.383-37.117 9.8359-9.8516 23.188-15.383 37.117-15.383h105c13.93 0 27.281 5.5312 37.117 15.383 9.8516 9.8359 15.383 23.188 15.383 37.117h87.5c19.336 0 35 15.664 35 35v35c0 19.336-15.664 35-35 35h-17.5v280c0 13.93-5.5312 27.281-15.383 37.117-9.8359 9.8516-23.188 15.383-37.117 15.383h-245c-13.93 0-27.281-5.5312-37.117-15.383-9.8516-9.8359-15.383-23.188-15.383-37.117zm87.5-70h-105v35h385v-35zm157.5-35c0-4.6367-1.8359-9.1016-5.1289-12.371-3.2695-3.293-7.7344-5.1289-12.371-5.1289h-105c-4.6367 0-9.1016 1.8359-12.371 5.1289-3.293 3.2695-5.1289 7.7344-5.1289 12.371zm-210 105v280c0 4.6367 1.8359 9.1016 5.1289 12.371 3.2695 3.293 7.7344 5.1289 12.371 5.1289h245c4.6367 0 9.1016-1.8359 12.371-5.1289 3.293-3.2695 5.1289-7.7344 5.1289-12.371v-280zm122.5 52.5c0-9.6602 7.8398-17.5 17.5-17.5s17.5 7.8398 17.5 17.5v192.5c0 9.6602-7.8398 17.5-17.5 17.5s-17.5-7.8398-17.5-17.5zm87.5 0c0-9.6602 7.8398-17.5 17.5-17.5s17.5 7.8398 17.5 17.5v192.5c0 9.6602-7.8398 17.5-17.5 17.5s-17.5-7.8398-17.5-17.5zm-175 0c0-9.6602 7.8398-17.5 17.5-17.5s17.5 7.8398 17.5 17.5v192.5c0 9.6602-7.8398 17.5-17.5 17.5s-17.5-7.8398-17.5-17.5z" fill-rule="evenodd"/>
</svg>
