
<svg fill="#fff" version="1.1" viewBox="0 0 348.08 348.08" xml:space="preserve"
    xmlns="http://www.w3.org/2000/svg">
    <path
        d="m340.27 275.08-53.755-53.761c-10.707-10.664-28.438-10.34-39.518 0.744l-27.082 27.076c-1.711-0.943-3.482-1.928-5.344-2.973-17.102-9.476-40.509-22.464-65.14-47.113-24.704-24.701-37.704-48.144-47.209-65.257-1.003-1.813-1.964-3.561-2.913-5.221l18.176-18.149 8.936-8.947c11.097-11.1 11.403-28.826 0.721-39.521l-53.755-53.767c-10.682-10.68-28.421-10.356-39.518 0.744l-15.15 15.237 0.414 0.411c-5.08 6.482-9.325 13.958-12.484 22.02-2.912 7.674-4.725 14.997-5.554 22.335-7.098 58.844 19.792 112.62 92.768 185.6 100.88 100.87 182.17 93.248 185.67 92.876 7.638-0.913 14.958-2.738 22.397-5.627 7.992-3.122 15.463-7.361 21.941-12.43l0.331 0.294 15.348-15.029c11.074-11.098 11.393-28.83 0.716-39.542z">
    </path>
</svg>